<?xml version="1.0" encoding="UTF-8"?>
<svg xmlns="http://www.w3.org/2000/svg" xmlns:xlink="http://www.w3.org/1999/xlink" width="45pt" height="45pt" viewBox="0 0 45 45" version="1.1">
<g id="surface1">
<path style=" stroke:none;fill-rule:nonzero;fill:rgb(12.156863%,81.176471%,75.686275%);fill-opacity:1;" d="M 44.105469 22.5 C 44.105469 34.429688 34.429688 44.105469 22.5 44.105469 C 10.570312 44.105469 0.894531 34.429688 0.894531 22.5 C 0.894531 10.570312 10.570312 0.894531 22.5 0.894531 C 34.429688 0.894531 44.105469 10.570312 44.105469 22.5 Z M 44.105469 22.5 "/>
<path style=" stroke:none;fill-rule:nonzero;fill:rgb(94.901961%,94.901961%,94.901961%);fill-opacity:1;" d="M 17.210938 34.421875 L 33.078125 22.5 L 17.210938 10.578125 Z M 17.210938 34.421875 "/>
<path style=" stroke:none;fill-rule:nonzero;fill:rgb(30.196078%,30.196078%,30.196078%);fill-opacity:1;" d="M 22.5 45 C 16.488281 45 10.839844 42.660156 6.589844 38.410156 C 2.339844 34.160156 0 28.511719 0 22.5 C 0 16.488281 2.339844 10.839844 6.589844 6.589844 C 10.839844 2.339844 16.488281 0 22.5 0 C 28.511719 0 34.160156 2.339844 38.410156 6.589844 C 42.660156 10.839844 45 16.488281 45 22.5 C 45 28.511719 42.660156 34.160156 38.410156 38.410156 C 34.160156 42.660156 28.511719 45 22.5 45 Z M 22.5 1.792969 C 11.082031 1.792969 1.792969 11.082031 1.792969 22.5 C 1.792969 33.917969 11.082031 43.207031 22.5 43.207031 C 33.917969 43.207031 43.207031 33.917969 43.207031 22.5 C 43.207031 11.082031 33.917969 1.792969 22.5 1.792969 Z M 22.5 1.792969 "/>
<path style=" stroke:none;fill-rule:nonzero;fill:rgb(30.196078%,30.196078%,30.196078%);fill-opacity:1;" d="M 17.210938 35.316406 C 17.074219 35.316406 16.9375 35.285156 16.8125 35.222656 C 16.507812 35.070312 16.316406 34.761719 16.316406 34.421875 L 16.316406 10.578125 C 16.316406 10.238281 16.507812 9.929688 16.8125 9.777344 C 17.113281 9.625 17.476562 9.660156 17.75 9.863281 L 33.617188 21.785156 C 33.839844 21.953125 33.972656 22.21875 33.972656 22.5 C 33.972656 22.78125 33.839844 23.046875 33.617188 23.214844 L 17.75 35.136719 C 17.589844 35.257812 17.402344 35.316406 17.210938 35.316406 Z M 18.109375 12.375 L 18.109375 32.625 L 31.585938 22.5 Z M 18.109375 12.375 "/>
<path style=" stroke:none;fill-rule:nonzero;fill:rgb(30.196078%,30.196078%,30.196078%);fill-opacity:1;" d="M 22.5 41.59375 C 22.003906 41.59375 21.605469 41.191406 21.605469 40.695312 C 21.605469 40.203125 22.003906 39.800781 22.5 39.800781 C 27.140625 39.800781 31.5 37.988281 34.773438 34.695312 C 35.121094 34.34375 35.6875 34.339844 36.039062 34.691406 C 36.390625 35.039062 36.394531 35.605469 36.042969 35.957031 C 32.433594 39.59375 27.621094 41.59375 22.5 41.59375 Z M 22.5 41.59375 "/>
<path style=" stroke:none;fill-rule:nonzero;fill:rgb(30.196078%,30.196078%,30.196078%);fill-opacity:1;" d="M 37.828125 33.207031 C 37.660156 33.207031 37.496094 33.160156 37.34375 33.066406 C 36.929688 32.796875 36.808594 32.242188 37.074219 31.828125 C 37.207031 31.621094 37.335938 31.40625 37.460938 31.191406 C 37.710938 30.765625 38.257812 30.621094 38.6875 30.867188 C 39.117188 31.117188 39.261719 31.667969 39.011719 32.09375 C 38.875 32.328125 38.730469 32.566406 38.582031 32.792969 C 38.410156 33.0625 38.121094 33.207031 37.828125 33.207031 Z M 37.828125 33.207031 "/>
</g>
</svg>
